<svg xmlns="http://www.w3.org/2000/svg" viewBox="0 0 320 340" width="100%" height="100%">
  <g id="Icon-Only">
    <!-- Top Pin -->
    <path fill="none" stroke="#BC984B" stroke-width="14" stroke-linecap="round" stroke-linejoin="round" d="M 160 28 L 160 38" />
    
    <!-- Canopy Ribs -->
    <path fill="none" stroke="#BC984B" stroke-width="14" stroke-linecap="round" stroke-linejoin="round" d="M 160 38 C 135 75, 118 110, 110 152" />
    <path fill="none" stroke="#BC984B" stroke-width="14" stroke-linecap="round" stroke-linejoin="round" d="M 160 38 C 185 75, 202 110, 210 152" />

    <!-- Scallop Bottom -->
    <path fill="none" stroke="#BC984B" stroke-width="14" stroke-linecap="round" stroke-linejoin="round" d="M 68 150 Q 90 125, 110 152 Q 160 110, 210 152 Q 230 125, 252 150" />

    <!-- Right Canopy Arc -->
    <path fill="none" stroke="#BC984B" stroke-width="14" stroke-linecap="round" stroke-linejoin="round" d="M 160 38 C 215 38, 250 85, 252 150" />

    <!-- Center Handle -->
    <path fill="none" stroke="#BC984B" stroke-width="14" stroke-linecap="round" stroke-linejoin="round" d="M 160 125 L 160 240 C 160 265, 138 270, 126 255 C 120 246, 123 230, 132 234" />

    <!-- S Ribbon -->
    <path fill="none" stroke="#BC984B" stroke-width="14" stroke-linecap="round" stroke-linejoin="round" d="M 68 150 C 56 100, 95 38, 160 38 C 115 65, 95 130, 150 175 C 192 210, 208 238, 198 270 C 185 308, 125 310, 105 278" />
  </g>
</svg>
